# xmcd
#
# Track frame offsets:
#	150
#	14015
#	23400
#	38725
#	51965
#	68472
#	87152
#	101327
#	113012
#	134982
#	148040
#	158697
#	170972
#	182495
#	191760
#	208722
#	217937
#	232435
#	248337
#
# Disc length: 3318 seconds
#
# Revision: 1
# Processed by: cddbd v1.5.2PL0 Copyright (c) Steve Scherf et al.
# Submitted via: audiograbber 1.83.01
#
DISCID=0a0cf413
DTITLE=Various Artist - Keep on indo Rockin'
DYEAR=2001
DGENRE=Indorock
TTITLE0=Andy Tielman - Rock Little Baby of Mine
TTITLE1=Sky Devils - Don't Ask About Love
TTITLE2=East and West Rockers - Let me Tell You
TTITLE3=Surf Rockers - Wild Side of Love
TTITLE4=Nightbreakers - C'Est la Vie
TTITLE5=Ricky and The Rhythm Strings - How's My Ex Treating You
TTITLE6=Rock Explosion - Yes Tonight Jospehine
TTITLE7=Johnny and The Rockers - Don't You Ever Stop Loving Me
TTITLE8=Peter and Danielle - Just Out of Reach
TTITLE9=Roy and The Kiliaan Brothers - Mama Papa Twist
TTITLE10=Ricky Lee - Mathilda Finally Came Back
TTITLE11=Blue Comets - Beyond the Reef
TTITLE12=Crazy Cadillac - At the Hop
TTITLE13=Irene - I'm Walkin'
TTITLE14=Rockin' Red Angels - Turn to Me
TTITLE15=Mike and the Rockin' Devils - Just Call me Lonesome
TTITLE16=New Savages - Lover's party
TTITLE17=Danny Everett - Ivonne van Loon Congratulations
TTITLE18=onbekend - Keep on indo Rockin'
EXTD=
EXTT0=
EXTT1=
EXTT2=
EXTT3=
EXTT4=
EXTT5=
EXTT6=
EXTT7=
EXTT8=
EXTT9=
EXTT10=
EXTT11=
EXTT12=
EXTT13=
EXTT14=
EXTT15=
EXTT16=
EXTT17=
EXTT18=
PLAYORDER=
